<svg id="Star" xmlns="http://www.w3.org/2000/svg" viewBox="0 0 38.51 38.51"><defs><style>.cls-1{fill:#fff;}.cls-2{fill:#ffcfcf;}.cls-3{fill:#d9f5ff;}</style></defs><g id="outer_star" data-name="outer star"><polygon class="cls-1" points="14.48 24.03 0.37 19.26 14.48 14.48 19.26 0.37 24.03 14.48 38.14 19.26 24.03 24.03 19.26 38.14 14.48 24.03"/><path class="cls-2" d="M19.56,1.67,24.2,15.39l0,.11.11,0,13.72,4.64L24.35,24.83l-.11,0,0,.11L19.56,38.7,14.91,25l0-.11-.12,0L1.05,20.18l13.71-4.64.12,0,0-.11L19.56,1.67m0-.74L14.69,15.31.3,20.18l14.39,4.88,4.87,14.38,4.87-14.38,14.39-4.88L24.43,15.31,19.56.93Z" transform="translate(-0.3 -0.93)"/></g><g id="inner_star" data-name="inner star"><polygon class="cls-3" points="19.26 9.99 21.6 16.91 28.52 19.26 21.6 21.6 19.26 28.52 16.91 21.6 9.99 19.26 16.91 16.91 19.26 9.99"/></g></svg>