<svg id="Layer_1" data-name="Layer 1" xmlns="http://www.w3.org/2000/svg" xmlns:xlink="http://www.w3.org/1999/xlink" viewBox="0 0 579.6 420.65"><defs><style>.cls-1,.cls-2{fill:#fff;}.cls-2{stroke:#000;stroke-miterlimit:10;}.cls-3{fill:#7b37ed;}.cls-4{fill:url(#Summer);}</style><radialGradient id="Summer" cx="387.11" cy="290.76" r="251.9" gradientUnits="userSpaceOnUse"><stop offset="0" stop-color="#fff"/><stop offset="0.09" stop-color="#ffedd8"/><stop offset="0.21" stop-color="#ffd5a7"/><stop offset="0.33" stop-color="#ffc17d"/><stop offset="0.46" stop-color="#ffb05b"/><stop offset="0.59" stop-color="#ffa340"/><stop offset="0.72" stop-color="#ff9a2d"/><stop offset="0.86" stop-color="#ff9522"/><stop offset="1" stop-color="#ff931e"/></radialGradient></defs><path class="cls-1" d="M512.17,302.85h0Zm2.72-.49v.49c2.12,0,4.22-.08,6.32-.2Q518.08,302.4,514.89,302.36Z" transform="translate(-97.31 -83.58)"/><path d="M514.89,302.36v.49c2.12,0,4.22-.08,6.32-.2q-3.13-.25-6.32-.29Zm0,.49h0Z" transform="translate(-97.31 -83.58)"/><path class="cls-2" d="M512.17,503.72h0Zm2.71-201.36v0Z" transform="translate(-97.31 -83.58)"/><path class="cls-3" d="M617.85,298.6a131.85,131.85,0,0,0,59.06-110c0-72.54-59.54-104.41-131.95-105h-1c-1.23,0-2.46,0-3.69,0H454.78v0H419.41l-133.49,346L153.46,83.58H97.31v10s.75-.25,3.55,3.13C104.08,100.57,104,102,104,102l144.3,395.81h.1l-.05.13h56.15l229.89-.53H535c72.41-.52,141.95-24.37,141.95-93.19C676.91,360.65,653.45,321.55,617.85,298.6Zm-171-159.48h97.07a70.4,70.4,0,0,1,69.6,70.39c0,38.62-31.06,65-69.57,65.44h-145Zm97.25,308.36H335.92L381,323.09l162.53-.39h.41c1.7,0,3.39.1,5.06.23C585.11,325.8,613.51,347,613.51,382,613.51,418.67,582.6,447.07,544.09,447.48Z" transform="translate(-97.31 -83.58)"/><path class="cls-4" d="M146.58,93.58l130,339.73,9.31,24.31,9.36-24.28,131-339.63h28.51l10,0h75.73c1.29,0,2.42,0,3.44,0h.94c35.93.27,66.14,8.43,87.39,23.61,23,16.42,34.63,40.42,34.63,71.34a121.81,121.81,0,0,1-54.59,101.69l-12.73,8.45L612.44,307c34.11,22,54.47,58.34,54.47,97.22,0,14.53-3.5,27.35-10.41,38.12-6.41,10-15.91,18.51-28.25,25.34-22.82,12.63-55.09,19.45-93.32,19.73h-2.69l-227.73.53H262.94l.05-.13h-7.66L113.7,99.33A18.4,18.4,0,0,0,111,93.58h35.57M384.8,285H544.05c45.3-.51,79.46-32.94,79.46-75.44a80.68,80.68,0,0,0-79.4-80.39H439.77l-2.36,6.68L389.5,271.63,384.8,285M321.66,457.48H544.19c44.48-.48,79.32-33.62,79.32-75.44,0-37.81-29.64-65.57-73.73-69.08-1.94-.15-3.88-.24-5.77-.26h-.54L381,313.09l-7,0-2.38,6.58L326.52,444.08l-4.86,13.4M153.46,83.58H97.31v10h0c.19,0,1.07.19,3.51,3.13C104.08,100.57,104,102,104,102l144.3,395.81h.1l-.05.13h56.15l228-.53H535c72.41-.52,141.95-24.37,141.95-93.19,0-43.57-23.46-82.67-59.06-105.62a131.85,131.85,0,0,0,59.06-110c0-72.54-59.54-104.41-131.95-105h-1c-1.23,0-2.46,0-3.69,0H454.78v0H419.41l-133.49,346L153.46,83.58ZM398.93,275l47.91-135.84h97.07a70.4,70.4,0,0,1,69.6,70.39c0,38.62-31.06,65-69.57,65.44h-145Zm-63,172.52L381,323.09l162.53-.39h.41c1.7,0,3.39.1,5.06.23C585.11,325.8,613.51,347,613.51,382c0,36.63-30.91,65-69.42,65.44H335.92Zm199,49.93h0Z" transform="translate(-97.31 -83.58)"/><path class="cls-1" d="M514.89,503.72h0Z" transform="translate(-97.31 -83.58)"/><path d="M514.89,503.72h0Z" transform="translate(-97.31 -83.58)"/><polygon class="cls-1" points="417.58 218.78 417.58 219.27 417.57 218.78 417.58 218.78"/><polygon points="417.58 218.78 417.57 218.78 417.58 219.27 417.58 218.78 417.58 218.78"/></svg>